<svg xmlns="http://www.w3.org/2000/svg" xmlns:xlink="http://www.w3.org/1999/xlink" width="183" height="61" viewBox="0 0 183 61">
    <defs>
        <path id="a" d="M0 .176v32.078h32.31V.176z"/>
    </defs>
    <g fill="none" fill-rule="evenodd">
        <path fill="#FFD92F" d="M176.222 48.473H183v-6.764h-6.778z"/>
        <path fill="#FFF" d="M174.528 20.236a1.41 1.41 0 0 1-1.422-1.418c0-.791.63-1.42 1.422-1.42.796 0 1.42.629 1.42 1.42 0 .79-.624 1.418-1.42 1.418m0-3.11c-.933 0-1.695.76-1.695 1.692 0 .93.762 1.69 1.695 1.69s1.694-.76 1.694-1.69c0-.932-.761-1.691-1.694-1.691"/>
        <path fill="#FFF" d="M174.612 18.417a.48.48 0 0 1 .334.13l.147-.109a.712.712 0 0 0-.481-.184c-.36 0-.649.25-.649.564 0 .313.29.563.649.563.18 0 .365-.074.48-.184l-.146-.11a.48.48 0 0 1-.334.128c-.256 0-.457-.173-.457-.397 0-.227.2-.4.457-.4"/>
        <path fill="#000" d="M90.732 30.657l-3.165 8.41-2.917-8.595L79.995 17.3h-8.813l12.226 29.993-5.71 13.234h8.317L104.697 17.3h-8.379z"/>
        <g transform="translate(0 17.127)">
            <mask id="b" fill="#fff">
                <use xlink:href="#a"/>
            </mask>
            <path fill="#000" d="M16.184 25.218c-5.024 0-8.967-3.987-8.967-9.003s3.943-9.003 8.967-9.003c4.834 0 8.84 3.987 8.84 9.003s-4.006 9.003-8.84 9.003M31.038.176h-5.973v2.608C22.54 1.134 19.499.176 16.185.176 7.02.176 0 7.276 0 16.215c0 8.94 7.02 16.039 16.186 16.039 3.313 0 6.354-.958 8.879-2.608v2.608h5.972l.004-.004s1.237.03 1.269-1.242V1.465c0-1.32-1.272-1.289-1.272-1.289" mask="url(#b)"/>
        </g>
        <path fill="#000" d="M120.335 41.768c-5.094 0-9.091-3.924-9.091-8.86 0-4.935 3.997-8.858 9.091-8.858 4.9 0 8.963 3.923 8.963 8.858 0 4.936-4.062 8.86-8.963 8.86m15.06-24.641h-6.056v2.566c-2.56-1.624-5.642-2.566-9.002-2.566-9.293 0-16.411 6.985-16.411 15.781 0 8.797 7.118 15.782 16.41 15.782 3.36 0 6.443-.942 9.003-2.566v2.566h6.056l.004-.003s1.254.028 1.286-1.222v-29.07c0-1.3-1.29-1.268-1.29-1.268M51.428 41.73c-5.094 0-9.092-3.944-9.092-8.907 0-4.962 3.998-8.907 9.092-8.907 4.9 0 8.963 3.945 8.963 8.907 0 4.963-4.062 8.907-8.963 8.907M60.432.218v19.318c-2.56-1.632-5.643-2.58-9.003-2.58-9.292 0-16.41 7.023-16.41 15.867 0 8.844 7.118 15.867 16.41 15.867 3.36 0 6.443-.947 9.003-2.58v2.58h6.056l.003-.003s1.255.029 1.287-1.229V5.563c0-3.026-7.346-5.345-7.346-5.345M156.453 27.543l-6.927-10.416h-9.452v.19l11.135 15.591-11.135 15.593v.19h9.452l6.928-10.417 6.927 10.416h9.452v-.19l-11.135-15.592 11.135-15.592v-.19h-9.452z"/>
    </g>
</svg>
